<svg id="Calque_1" data-name="Calque 1" xmlns="http://www.w3.org/2000/svg" viewBox="0 0 24 24"><defs><style>.cls-1{fill:#fff;}</style></defs><title>Plan de travail 1</title><path class="cls-1" d="M8.07,24a2.75,2.75,0,0,1-1-.19,2.85,2.85,0,0,1-1.72-3.4h0l.09-.22L12.4,2a3.38,3.38,0,0,0,0-1.27.65.65,0,0,1,0-.24v0h0v0c.1-.29.45-.44,1-.44A7.81,7.81,0,0,1,16,.57a8.72,8.72,0,0,1,2,1.08c.6.45.84.85.71,1.2l0,0v0a.77.77,0,0,1-.15.16A3.61,3.61,0,0,0,17.7,4L10.64,22.44h0A2.87,2.87,0,0,1,8.08,24h0ZM5.89,20.28l0,0a2.36,2.36,0,0,0,1.36,3,2.4,2.4,0,0,0,.84.15A2.31,2.31,0,0,0,10.25,22l0-.06,7-18.09a4.46,4.46,0,0,1,1-1.14h0s0,0,0,0S18.19,2.4,17.7,2a7.82,7.82,0,0,0-1.9-1A7.49,7.49,0,0,0,13.43.48c-.39,0-.53.08-.55.12v0a3.9,3.9,0,0,1,0,1.52l-7,18.12Zm9-11.51A7.1,7.1,0,0,1,13,10.28a23.37,23.37,0,0,0-2.32.76,3.71,3.71,0,0,0-1.19,1.1L6.27,20.5a1.93,1.93,0,0,0,1.12,2.42,1.9,1.9,0,0,0,2.42-1.05Zm-4.94,10a.2.2,0,1,1,.17.37A.2.2,0,0,1,9.8,19,.21.21,0,0,1,9.9,18.76Zm-1-1.8a.3.3,0,0,1-.4-.16.29.29,0,0,1,.16-.39.3.3,0,0,1,.4.15.29.29,0,0,1-.16.39Zm.29-1.1a.58.58,0,0,1,.28-.76.57.57,0,0,1,.75.29.58.58,0,0,1-.28.76.6.6,0,0,1-.77-.29ZM11.6,13.6a.3.3,0,1,1-.15.4.3.3,0,0,1,.15-.4Zm-1.29-1.37a.2.2,0,0,1,.27.1.21.21,0,0,1-.11.27.19.19,0,0,1-.26-.11A.19.19,0,0,1,10.31,12.23ZM13.68,1.14c.1-.26,1-.16,2,.23s1.72.9,1.63,1.17-1,.16-2-.23-1.73-.91-1.63-1.17Z"/></svg>