<svg xmlns="http://www.w3.org/2000/svg" viewBox="0 0 392.62 341.19"><defs><style>.cls-1{fill:#42b983;}.cls-2{fill:#448e68;}.cls-3{fill:#164431;}</style></defs><title>Penrose_green</title><g id="Calque_2" data-name="Calque 2"><g id="Calque_1-2" data-name="Calque 1"><path class="cls-1" d="M222.77.12c-17.22-.06-34.44-.25-51.65,0-1.88,0-4.37,2.4-5.49,4.32C152,27.84,138.47,51.34,124.93,74.81q-57.51,99.7-115,199.43c-3.45,6-6.63,12.11-9.93,18.17H280.82L252.1,243.53l-111.36,0H84.79a27.54,27.54,0,0,1,1.37-3.84q19.7-34.22,39.45-68.39c9.79-17,19.64-33.88,29.4-50.85,10.72-18.66,21.33-37.39,32.07-56Q205.46,32.43,224,.58l-.23-.14Z"/><path class="cls-2" d="M224,.58q-18.45,31.89-36.89,63.79C176.34,83,165.73,101.76,155,120.42c-9.76,17-19.61,33.89-29.4,50.85q-19.76,34.18-39.45,68.39a27.54,27.54,0,0,0-1.37,3.84h56a41.16,41.16,0,0,1,1.75-3.95q14.14-24.65,28.35-49.24c8.45-14.54,17-29,25.54-43.51l27.93-49.34c15.31,26.38,30,51.54,44.53,76.76q36.29,62.88,72.44,125.83c7.81,13.59,15.51,27.25,23.27,40.87,3.89-6.22,7.9-12.38,11.64-18.7,5.19-8.77,10.07-17.73,15.35-26.44a5.67,5.67,0,0,0,0-6.64c-6.89-11.88-13.62-23.87-20.5-35.76-11-19-22.14-38-33.18-57.08Q313,153.48,288.26,110.62q-23.89-41.45-47.62-83-6.88-12-13.92-23.89A22.64,22.64,0,0,0,224,.58Z"/><path class="cls-3" d="M364.55,340.92c-7.76-13.62-15.46-27.28-23.27-40.87q-36.18-62.94-72.44-125.83c-14.55-25.22-29.22-50.38-44.53-76.76-9.57,16.9-18.75,33.12-27.92,49.34q16.8,29,33.6,58c7.42,12.87,14.74,25.8,22.11,38.71l28.72,48.88H0c4,7.41,7.79,14.88,11.9,22.21,4.21,7.48,8.91,14.69,12.92,22.27,1.81,3.42,3.95,4.3,7.62,4.3q161-.15,321.89-.09C357.74,341.1,361.14,341,364.55,340.92Z"/></g></g></svg>