<svg xmlns="http://www.w3.org/2000/svg" viewBox="0 0 392.23 341.75"><defs><style>.cls-1{fill:#164431;}.cls-2{fill:#42b983;}.cls-3{fill:#448e68;}</style></defs><title>Penrose_03_1</title><g id="Calque_2" data-name="Calque 2"><g id="Calque_1-2" data-name="Calque 1"><path class="cls-1" d="M26.17,2C17.52,16.88,8.75,31.7.4,46.75c-.92,1.65-.11,5,1,6.92C14.82,77.2,28.45,100.61,42,124.05q57.66,99.63,115.35,199.24c3.46,6,7.18,11.79,10.79,17.67L308.4,97.66l-56.7.48L196.06,194.6l-27.94,48.48a28.67,28.67,0,0,1-2.64-3.1q-19.81-34.15-39.56-68.34-14.69-25.42-29.37-50.86C85.74,102.17,74.81,83.62,64,65Q45.52,33.14,27.17,1.18l-.24.14Z"/><path class="cls-2" d="M27.17,1.18Q45.59,33.1,64,65c10.8,18.62,21.73,37.17,32.54,55.78q14.74,25.4,29.37,50.86,19.76,34.19,39.56,68.34a28.67,28.67,0,0,0,2.64,3.1c9.55-16.57,18.75-32.52,27.94-48.48a40.69,40.69,0,0,1-2.54-3.48Q179.23,166.57,165,142c-8.38-14.58-16.63-29.24-24.94-43.86l-28.8-48.82c30.5-.1,59.62-.25,88.74-.26q72.6,0,145.19.08c15.68,0,31.36.16,47,.25-3.45-6.48-6.78-13-10.39-19.42-5-8.88-10.33-17.58-15.24-26.51A5.66,5.66,0,0,0,360.86.1C347.12.13,333.37,0,319.63,0c-22,0-44,.19-66,.25q-49.5.12-99,.19C122.71.44,90.82.3,58.93.25Q45.1.22,31.27.38A22,22,0,0,0,27.17,1.18Z"/><path class="cls-3" d="M392.23,49.35c-15.67-.09-31.35-.23-47-.25Q272.62,49,200,49c-29.12,0-58.24.16-88.74.26l28.8,48.82Q173.59,98,207.12,98c14.86,0,29.72.11,44.58.17l56.7-.48L168.16,341c8.39.28,16.78.68,25.18.78,8.58.1,17.18-.38,25.75-.07,3.86.14,5.7-1.27,7.53-4.46Q306.86,197.7,387.29,58.29C389,55.34,390.59,52.33,392.23,49.35Z"/></g></g></svg>